<?xml version="1.0" encoding="UTF-8"?>
<svg width="24" height="24" viewBox="0 0 24 24" xmlns="http://www.w3.org/2000/svg">
  <path fill="#181616" d="M12 .297C5.373.297 0 5.67 0 12.297c0 5.303 3.438 9.8 8.205 11.387.6.113.82-.258.82-.577 0-.285-.01-1.04-.015-2.04-3.338.725-4.042-1.61-4.042-1.61C4.422 17.07 3.633 16.7 3.633 16.7c-1.087-.744.084-.729.084-.729 1.205.084 1.84 1.236 1.84 1.236 1.07 1.834 2.809 1.304 3.495.997.108-.775.418-1.304.76-1.604-2.665-.304-5.467-1.334-5.467-5.93 0-1.31.47-2.382 1.235-3.222-.135-.303-.54-1.526.105-3.176 0 0 1.005-.322 3.3 1.23.96-.267 1.98-.399 3-.405 1.02.006 2.04.138 3 .405 2.28-1.552 3.285-1.23 3.285-1.23.645 1.65.24 2.873.12 3.176.765.84 1.23 1.912 1.23 3.222 0 4.61-2.805 5.625-5.475 5.92.42.36.81 1.096.81 2.22 0 1.604-.015 2.896-.015 3.286 0 .315.21.69.825.57C20.565 22.092 24 17.592 24 12.297 24 5.67 18.627.297 12 .297z"/>
</svg>
